# xmcd
#
# Track frame offsets: 
#        150
#        3110
#        26596
#        49916
#        67019
#        86648
#        108986
#        123700
#        139891
#        152040
#        171874
#        185305
#        205176
#
# Disc length: 2901 seconds
#
# Revision: 0
# Processed by: cddbd v1.5.2PL0 Copyright (c) Steve Scherf et al.
# Submitted via: ExactAudioCopy v0.99pb5
#
DISCID=b00b530d
DTITLE=Purgatory Hi; - - Purgatory Hill
DYEAR=2009
DGENRE=Lo-Fi
TTITLE0=Sintro
TTITLE1=Blues of Sin - Babylon
TTITLE2=Reset Me Lord
TTITLE3=No One's Daddy
TTITLE4=42 Blues
TTITLE5=Drinkin' or Drivin'
TTITLE6=The Little Things
TTITLE7=Count To Ten
TTITLE8=Meet Ze Monsta
TTITLE9=Rollin' and Tumblin'
TTITLE10=Wanna Be Your Dog
TTITLE11=Shut Up
TTITLE12=PurAtory Risin'
EXTD=
EXTT0=
EXTT1=
EXTT2=
EXTT3=
EXTT4=
EXTT5=
EXTT6=
EXTT7=
EXTT8=
EXTT9=
EXTT10=
EXTT11=
EXTT12=
PLAYORDER=
